<svg xmlns="http://www.w3.org/2000/svg" version="1.1" xmlns:xlink="http://www.w3.org/1999/xlink" xmlns:svgjs="http://svgjs.com/svgjs" width="1440" height="1900" preserveAspectRatio="none" viewBox="0 0 1440 1900"><g mask="url(&quot;#SvgjsMask1012&quot;)" fill="none"><rect width="1440" height="1900" x="0" y="0" fill="rgba(255, 255, 255, 1)"></rect><path d="M-91.69 513.82C165.12 582.76 208 1123.73 632.51 1292.82 1057.02 1461.91 831.8 1876.41 994.61 1983.78" stroke="rgba(6, 3, 3, 0.58)" stroke-width="2"></path><path d="M-120.76 1037.67C84.92 981.59 73.73 336.08 457.2 410.67 840.67 485.26 737.53 1759.94 1035.16 2089.15" stroke="rgba(6, 3, 3, 0.58)" stroke-width="2"></path><path d="M-125.3 1454.81C4.68 1461.6 106.35 1692.31 338.01 1692.31 569.66 1692.31 539.1 1439.6 801.31 1454.81 1063.53 1470.02 1071.28 2089.58 1264.62 2187.49" stroke="rgba(6, 3, 3, 0.58)" stroke-width="2"></path><path d="M-224.26 505.21C-42.9 589.6-169.75 934.06 220.69 1170.21 611.14 1406.36 458.9 1945.43 665.65 2098.81" stroke="rgba(6, 3, 3, 0.58)" stroke-width="2"></path><path d="M-189.64 955.81C-4.08 926.96 0.85 399.05 392.28 480.81 783.71 562.57 680.43 1754.12 974.2 2053.05" stroke="rgba(6, 3, 3, 0.58)" stroke-width="2"></path></g><defs><mask id="SvgjsMask1012"><rect width="1440" height="1900" fill="#ffffff"></rect></mask></defs></svg>